:SAMPLES-PER-SECOND 30
:FULLY-SPECIFIED
:DEGREES
341
root  -33.1417 35.0318 3.18258 -174.483 79.1373 178.733
RightUpLeg  -2.94299 -8.06887 -1.83359
RightLeg  2.25694 6.33988 -0.156363
RightFoot  5.26837 -0.00716931 0.698909
RightToes  -30.0348 -0.146924 -0.270909
Spine  -2.78167 0.470087 -0.302644
Spine1  -5.21557 1.09241 -0.0261944
HEad  -61.4583 -1.71945 2.63186
LeftShoulder1  -1.94126e-019 -3.10601e-018 -2.51263e-017
LeftArm  -1.45082 16.9781 -66.7448
LeftForeArm  153.746 -60.4807 -160.805
LeftHand  -0.290674 -0.532762 5.79366
RightShoulder  -4.96962e-017 0 -2.36833e-017
RightArm  2.6755 -16.7015 51.8597
RightForeArm  164.857 60.3876 162.018
RightHand  0.129831 -2.88657 6.93763
LeftUpLeg  -3.41102 1.49579 -1.36316
LeftLeg  -0.10143 13.1996 -0.864758
LeftFoot  7.65668 -0.120926 1.96852
LeftToes  -17.0203 1.89912e-006 4.45198e-008
342
root  -33.2009 35.0352 3.19198 -174.672 78.9149 178.691
RightUpLeg  -2.84899 -8.21233 -1.84813
RightLeg  2.23677 6.25739 -0.156543
RightFoot  5.34753 -0.00707551 0.699688
RightToes  -30.0769 -0.146651 -0.270892
Spine  -2.97041 0.582196 -0.352697
Spine1  -5.50106 1.34762 -0.138969
HEad  -61.0726 -2.46118 2.79107
LeftShoulder1  -1.94126e-019 -3.10601e-018 -2.51263e-017
LeftArm  -2.64511 10.3577 -66.7098
LeftForeArm  156.494 -61.4452 -160.33
LeftHand  -0.387492 -1.23156 6.94304
RightShoulder  -4.96962e-017 0 -2.36833e-017
RightArm  -1.22902 -11.2191 53.1302
RightForeArm  164.699 60.0962 162.193
RightHand  0.176439 -1.8943 6.29872
LeftUpLeg  -3.38355 1.31561 -1.36801
LeftLeg  -0.100647 13.1763 -0.863177
LeftFoot  7.78672 -0.123553 1.99853
LeftToes  -17.0528 1.89912e-006 4.45198e-008
343
root  -33.2571 35.0364 3.20683 -174.844 78.6652 178.639
RightUpLeg  -2.77308 -8.35351 -1.8522
RightLeg  2.21499 6.16449 -0.156576
RightFoot  5.40155 -0.00675506 0.696917
RightToes  -30.1204 -0.146399 -0.27086
Spine  -3.12402 0.585845 -0.391593
Spine1  -5.74138 1.38122 -0.224995
HEad  -60.6727 -2.97458 2.85661
LeftShoulder1  -1.94126e-019 -3.10601e-018 -2.51263e-017
LeftArm  -3.36846 4.61195 -66.9129
LeftForeArm  158.706 -64.9313 -157.558
LeftHand  -0.489639 -1.57313 8.33414
RightShoulder  -4.96962e-017 0 -2.36833e-017
RightArm  -4.76736 -5.93563 55.3028
RightForeArm  162.902 62.5946 160.175
RightHand  0.159444 -1.41223 4.93828
LeftUpLeg  -3.38374 1.25012 -1.36259
LeftLeg  -0.0949905 12.9867 -0.850314
LeftFoot  7.90591 -0.124582 2.00128
LeftToes  -17.0985 1.89912e-006 4.45198e-008
344
root  -33.3061 35.0384 3.22732 -174.948 78.4886 178.62
RightUpLeg  -2.75101 -8.48712 -1.83946
RightLeg  2.22665 6.12903 -0.154432
RightFoot  5.43889 -0.00668538 0.69734
RightToes  -30.0258 -0.14617 -0.270811
Spine  -3.23192 0.545841 -0.396266
Spine1  -5.91764 1.32305 -0.246391
HEad  -60.2637 -3.34766 2.6791
LeftShoulder1  -1.94126e-019 -3.10601e-018 -2.51263e-017
LeftArm  -3.95292 0.251156 -67.6206
LeftForeArm  156.342 -70.168 -150.98
LeftHand  -0.529914 -1.44131 9.16912
RightShoulder  -4.96962e-017 0 -2.36833e-017
RightArm  -7.32233 -1.45952 58.1925
RightForeArm  159.536 67.342 155.263
RightHand  0.0849883 -1.33264 2.67232
LeftUpLeg  -3.40251 1.28419 -1.33989
LeftLeg  -0.0890217 12.7809 -0.836378
LeftFoot  8.01553 -0.125301 1.99779
LeftToes  -17.3207 1.89912e-006 4.45198e-008
345
root  -33.349 35.041 3.25422 -174.923 78.4603 178.72
RightUpLeg  -2.78357 -8.5613 -1.79489
RightLeg  2.28225 6.18435 -0.149813
RightFoot  5.49049 -0.00734248 0.707683
RightToes  -30.0266 -0.145967 -0.270746
Spine  -3.3178 0.538887 -0.370825
Spine1  -6.07686 1.32699 -0.215839
HEad  -60.0149 -3.55666 2.50476
LeftShoulder1  -1.94126e-019 -3.10601e-018 -2.51263e-017
LeftArm  -4.09786 -2.82895 -68.862
LeftForeArm  142.427 -76.4352 -134.251
LeftHand  -0.563627 -1.25264 10.0034
RightShoulder  -4.96962e-017 0 -2.36833e-017
RightArm  -8.97059 1.81873 61.496
RightForeArm  151.255 73.5069 144.32
RightHand  -0.014479 -1.8081 -0.152094
LeftUpLeg  -3.41008 1.3434 -1.28913
LeftLeg  -0.0868685 12.7025 -0.831072
LeftFoot  8.10204 -0.126819 2.00634
LeftToes  -17.4665 1.89912e-006 4.45198e-008
346
root  -33.3868 35.0429 3.28246 -174.815 78.5668 178.895
RightUpLeg  -2.82767 -8.50223 -1.72985
RightLeg  2.32687 6.23396 -0.146152
RightFoot  5.52761 -0.00790373 0.71612
RightToes  -29.9894 -0.145793 -0.270663
Spine  -3.3281 0.571589 -0.336576
Spine1  -6.10113 1.40389 -0.169387
HEad  -60.1217 -3.6821 2.52572
LeftShoulder1  -1.94126e-019 -3.10601e-018 -2.51263e-017
LeftArm  -4.0577 -4.95093 -70.5336
LeftForeArm  100.306 -80.2345 -90.883
LeftHand  -0.543709 -0.966481 10.0671
RightShoulder  -4.96962e-017 0 -2.36833e-017
RightArm  -10.1817 4.06448 64.9662
RightForeArm  126.527 79.2761 116.063
RightHand  -0.0936203 -2.46112 -3.25074
LeftUpLeg  -3.40584 1.40412 -1.22685
LeftLeg  -0.0885107 12.754 -0.83496
LeftFoot  8.14653 -0.128868 2.0238
LeftToes  -17.5432 1.89912e-006 4.45198e-008
347
root  -33.4173 35.0457 3.30644 -174.715 78.7375 179.067
RightUpLeg  -2.8612 -8.42034 -1.67493
RightLeg  2.36868 6.32777 -0.143721
RightFoot  5.57029 -0.00882736 0.729121
RightToes  -30.0565 -0.145649 -0.270562
Spine  -3.28782 0.601428 -0.311673
Spine1  -6.04405 1.46227 -0.13423
HEad  -60.446 -3.66053 2.8901
LeftShoulder1  -1.94126e-019 -3.10601e-018 -2.51263e-017
LeftArm  -4.07174 -6.23788 -72.5022
LeftForeArm  53.7403 -75.8904 -42.9161
LeftHand  -0.492108 -0.768801 9.401
RightShoulder  -4.96962e-017 0 -2.36833e-017
RightArm  -11.2664 5.43423 68.4601
RightForeArm  75.9661 79.1959 60.8196
RightHand  -0.147854 -2.84776 -6.21043
LeftUpLeg  -3.37893 1.50396 -1.16938
LeftLeg  -0.09065 12.8225 -0.839195
LeftFoot  8.2046 -0.13112 2.04608
LeftToes  -17.611 1.89912e-006 4.45198e-008
348
root  -33.4385 35.0485 3.32344 -174.701 78.9295 179.142
RightUpLeg  -2.87384 -8.29962 -1.64578
RightLeg  2.38633 6.39184 -0.143198
RightFoot  5.57067 -0.00927172 0.73459
RightToes  -29.907 -0.145538 -0.270441
Spine  -3.2164 0.604303 -0.315725
Spine1  -5.94717 1.44972 -0.142811
HEad  -60.6883 -3.56456 3.475
LeftShoulder1  -1.94126e-019 -3.10601e-018 -2.51263e-017
LeftArm  -4.26042 -6.73615 -74.6172
LeftForeArm  36.2829 -66.421 -22.7654
LeftHand  -0.439553 -0.74893 8.43438
RightShoulder  -4.96962e-017 0 -2.36833e-017
RightArm  -12.4849 6.09282 71.8518
RightForeArm  49.8373 71.2589 28.417
RightHand  -0.18871 -3.04335 -8.77514
LeftUpLeg  -3.33926 1.64041 -1.13559
LeftLeg  -0.0919114 12.8616 -0.841841
LeftFoot  8.21862 -0.132207 2.05293
LeftToes  -17.5994 1.89912e-006 4.45198e-008
349
root  -33.4478 35.0496 3.33247 -174.616 79.1143 179.268
RightUpLeg  -2.88716 -8.21524 -1.61951
RightLeg  2.39431 6.48698 -0.144413
RightFoot  5.605 -0.0102445 0.746845
RightToes  -29.8826 -0.145464 -0.270302
Spine  -3.12277 0.574197 -0.343496
Spine1  -5.83104 1.35505 -0.186241
HEad  -60.6903 -3.49143 4.15155
LeftShoulder1  -1.94126e-019 -3.10601e-018 -2.51263e-017
LeftArm  -4.69712 -6.49408 -76.7371
LeftForeArm  30.9854 -55.155 -13.7034
LeftHand  -0.41891 -0.802597 7.97788
RightShoulder  -4.96962e-017 0 -2.36833e-017
RightArm  -13.8588 6.05657 74.8322
RightForeArm  43.6841 60.1707 15.6739
RightHand  -0.217841 -3.15231 -10.7434
LeftUpLeg  -3.29778 1.72559 -1.10495
LeftLeg  -0.0946628 12.9527 -0.849609
LeftFoot  8.18628 -0.132816 2.05605
LeftToes  -17.456 1.89912e-006 4.45198e-008
350
root  -33.44 35.0498 3.33274 -174.473 79.3341 179.391
RightUpLeg  -2.91118 -8.15592 -1.6045
RightLeg  2.35594 6.67208 -0.152976
RightFoot  5.65402 -0.0120019 0.769473
RightToes  -29.9759 -0.145427 -0.270142
Spine  -3.02678 0.52296 -0.374993
Spine1  -5.73303 1.20455 -0.224673
HEad  -60.5031 -3.37519 4.97429
LeftShoulder1  -1.94126e-019 -3.10601e-018 -2.51263e-017
LeftArm  -5.59013 -5.29964 -78.679
LeftForeArm  30.4817 -43.501 -8.6402
LeftHand  -0.411992 -0.713609 7.95469
RightShoulder  -4.96962e-017 0 -2.36833e-017
RightArm  -15.1331 5.41219 77.1054
RightForeArm  43.0863 47.8036 9.29565
RightHand  -0.199462 -3.48679 -11.455
LeftUpLeg  -3.28771 1.91579 -1.08599
LeftLeg  -0.0959504 12.9966 -0.850988
LeftFoot  8.17461 -0.132924 2.05612
LeftToes  -17.666 1.89912e-006 4.45198e-008
351
root  -33.4164 35.0438 3.32718 -174.283 79.5839 179.487
RightUpLeg  -2.98303 -8.00312 -1.58335
RightLeg  2.31045 6.74365 -0.159961
RightFoot  5.68322 -0.0129738 0.779969
RightToes  -30.2121 -0.145431 -0.269961
Spine  -2.92211 0.459228 -0.410799
Spine1  -5.62818 1.0269 -0.270814
HEad  -60.3589 -3.19107 5.85109
LeftShoulder1  -1.94126e-019 -3.10601e-018 -2.51263e-017
LeftArm  -9.05272 -2.95486 -80.2144
LeftForeArm  34.8748 -32.3564 -6.18242
LeftHand  -0.409739 -0.620918 8.02578
RightShoulder  -4.96962e-017 0 -2.36833e-017
RightArm  -16.1449 4.20647 78.6224
RightForeArm  44.5179 34.8426 5.28802
RightHand  -0.183047 -3.55579 -10.8074
LeftUpLeg  -3.31654 2.08832 -1.08188
LeftLeg  -0.0977895 13.062 -0.856336
LeftFoot  8.09686 -0.131887 2.04414
LeftToes  -17.7032 1.89912e-006 4.45198e-008
352
root  -33.3773 35.0342 3.31701 -173.933 79.8618 179.66
RightUpLeg  -3.11524 -7.8612 -1.55179
RightLeg  2.25494 6.8733 -0.169673
RightFoot  5.66899 -0.0140918 0.791567
RightToes  -30.2255 -0.145477 -0.269758
Spine  -2.78549 0.420692 -0.435382
Spine1  -5.45385 0.909145 -0.298601
HEad  -60.6743 -2.87883 6.59127
LeftShoulder1  -1.94126e-019 -3.10601e-018 -2.51263e-017
LeftArm  -13.2518 0.795291 -81.0002
LeftForeArm  40.3473 -22.7866 -4.24211
LeftHand  -0.411182 -0.611792 8.0652
RightShoulder  -4.96962e-017 0 -2.36833e-017
RightArm  -18.3688 1.72433 79.117
RightForeArm  51.0152 22.983 3.30393
RightHand  -0.199181 -2.74744 -8.29805
LeftUpLeg  -3.40114 2.33197 -1.07007
LeftLeg  -0.0984585 13.0922 -0.857469
LeftFoot  7.98 -0.129541 2.01858
LeftToes  -17.7172 1.89912e-006 4.45198e-008
